<svg id="Layer_1" data-name="Layer 1" xmlns="http://www.w3.org/2000/svg" width="44.64" height="90.75" viewBox="0 0 44.64 90.75"><defs><style>.cls-1{fill:#251f1d;}.cls-2{fill:#925d4b;}.cls-3{fill:#e5d7cd;}.cls-4{fill:#333e40;}.cls-5,.cls-6,.cls-7,.cls-8{isolation:isolate;}.cls-6,.cls-7,.cls-8{font-size:12.38px;fill:#f2eed7;font-family:GabrielaStencil-Bold, Gabriela Stencil;font-weight:700;}.cls-6{letter-spacing:-0.03em;}.cls-8{letter-spacing:-0.08em;}</style></defs><title>resize_logo_3</title><g id="Logo_edited_feb_23" data-name="Logo edited feb 23"><path class="cls-1" d="M23.39,90.75H21.25A21.12,21.12,0,0,1,0,69.88v-49A21.12,21.12,0,0,1,21.25,0h2.14A21.14,21.14,0,0,1,44.64,20.87v49C44.2,82.16,35.05,90.75,23.39,90.75Z"/><path class="cls-2" d="M4.78,40.4s6.27,27.08,20.69,27.66V52.12l-3.58-.28V40.4Z"/><path class="cls-3" d="M.82,23.23h21V39.06H4.73A130.17,130.17,0,0,1,.82,23.23Z"/><path class="cls-4" d="M27.33,52.09V68s10.14.54,16.5-15.87Z"/><polygon class="cls-3" points="24.91 57.41 16.68 59.98 24.91 62.66 24.91 57.41"/><path class="cls-4" d="M17.37,36.92c0-3.19-2-5.77-4.46-5.77s-4.46,2.58-4.46,5.77a7.26,7.26,0,0,0,.64,3V43h7.73V39.71A7,7,0,0,0,17.37,36.92Z"/><g class="cls-5"><text class="cls-6" transform="translate(1.35 51.94) scale(0.85 1)">L</text><text class="cls-7" transform="translate(8.04 51.94) scale(0.85 1)">AN H</text><text class="cls-8" transform="translate(35.35 51.94) scale(0.85 1)">A</text></g></g></svg>